<svg width="512" height="512" viewBox="0 0 512 512" fill="none" xmlns="http://www.w3.org/2000/svg">
<rect width="512" height="512" fill="#EEEEEE"/>
<path d="M239.865 85.4619C258.906 124.72 200.301 151.385 173.414 121.937C162.211 109.391 167.364 85.1473 194.539 71.9724C208.139 65.2277 227.18 59.0961 239.865 85.4619Z" fill="black"/>
<path d="M359.729 68.1886C380.445 110.924 316.614 139.961 287.356 107.899C275.159 94.2236 280.76 67.8578 310.38 53.505C325.173 46.1551 345.897 39.4991 359.729 68.1886Z" fill="black"/>
<path fill-rule="evenodd" clip-rule="evenodd" d="M237.15 433.511C280.505 438.505 325.631 424.894 343.061 396.786C357.798 373.203 345.738 365.039 328.756 384.079C293.014 425.354 255.926 406.758 240.291 365.039L244.314 363.683C319.821 333.299 367.183 250.781 337.251 204.076C296.132 139.686 167.453 197.267 151.361 287.506C136.615 370.936 175.042 426.709 237.15 433.511ZM283.629 208.618C296.587 229.474 280.952 303.384 234.031 336.938C232.693 326.498 232.693 315.171 233.582 303.384C242.967 220.857 269.781 186.859 283.629 208.618Z" fill="black"/>
</svg>
