<svg width="192" height="192" viewBox="0 0 192 192" fill="none" xmlns="http://www.w3.org/2000/svg">
<rect width="192" height="192" fill="#EEEEEE"/>
<path d="M89.9496 32.0482C97.0899 46.7701 75.1129 56.7693 65.0304 45.7263C60.8292 41.0217 62.7615 31.9302 72.9521 26.9897C78.052 24.4604 85.1923 22.161 89.9496 32.0482Z" fill="black"/>
<path d="M134.898 25.5707C142.667 41.5966 118.73 52.4852 107.758 40.462C103.185 35.3339 105.285 25.4467 116.392 20.0644C121.94 17.3082 129.711 14.8122 134.898 25.5707Z" fill="black"/>
<path fill-rule="evenodd" clip-rule="evenodd" d="M88.9311 162.567C105.189 164.439 122.112 159.335 128.648 148.795C134.174 139.951 129.652 136.889 123.284 144.03C109.88 159.508 95.9723 152.534 90.1091 136.889L91.6177 136.381C119.933 124.987 137.694 94.0429 126.469 76.5285C111.049 52.3823 62.7948 73.975 56.7604 107.815C51.2308 139.101 65.6408 160.016 88.9311 162.567ZM106.361 78.2319C111.22 86.0527 105.357 113.769 87.7617 126.352C87.2598 122.437 87.2598 118.189 87.5934 113.769C91.1125 82.8215 101.168 70.0722 106.361 78.2319Z" fill="black"/>
</svg>
